<svg aria-hidden="true" style="width:0;height:0;position:absolute;overflow:hidden" xmlns="http://www.w3.org/2000/svg"><defs><symbol id="icon-location" viewBox="0 0 32 32"><path d="M14.848 28.7c-2.537-3.177-8.181-10.875-8.181-15.2C6.667 8.253 10.846 4 16 4c5.153 0 9.333 4.253 9.333 9.5 0 4.325-5.687 12.023-8.181 15.2a1.453 1.453 0 0 1-2.304 0zM16 16.667c1.716 0 3.111-1.42 3.111-3.167S17.716 10.333 16 10.333s-3.111 1.42-3.111 3.167c0 1.747 1.395 3.167 3.111 3.167z"/></symbol><symbol id="icon-email" viewBox="0 0 32 32"><path d="M6.192 6.4h21.2c2 0 3.008.944 3.008 2.864v13.472c0 1.904-1.008 2.864-3.008 2.864h-21.2c-2 0-3.008-.96-3.008-2.864V9.264c0-1.92 1.008-2.864 3.008-2.864zm10.592 13.76 10.784-8.848c.384-.32.688-1.056.208-1.712-.464-.656-1.312-.672-1.872-.272l-9.12 6.176L7.68 9.328c-.56-.4-1.408-.384-1.872.272-.48.656-.176 1.392.208 1.712l10.768 8.848z"/></symbol><symbol id="icon-phone" viewBox="0 0 32 32"><path d="M7.244 5.395 9.74 2.901a1.891 1.891 0 0 1 1.343-.558c.509 0 .987.199 1.345.558l2.686 2.686a1.891 1.891 0 0 1 .558 1.343c0 .509-.199.987-.558 1.345l-1.964 1.964a9.237 9.237 0 0 0 1.887 2.721 9.278 9.278 0 0 0 2.721 1.894l1.964-1.964a1.891 1.891 0 0 1 1.343-.558c.509 0 .987.199 1.345.558l2.688 2.684a1.895 1.895 0 0 1 .558 1.345c0 .509-.199.987-.558 1.345l-2.491 2.491a3.082 3.082 0 0 1-2.67.858c-3.159-.52-6.293-2.201-8.822-4.727-2.527-2.524-4.205-5.655-4.732-8.824a3.086 3.086 0 0 1 .86-2.667z"/></symbol><symbol id="icon-google" viewBox="0 0 32 32"><path fill="#ffc107" style="fill:var(--color1,#ffc107)" d="M29.074 13.389H28v-.055H16v5.333h7.535C22.436 21.772 19.482 24 16 24a8 8 0 0 1 0-16c2.039 0 3.895.769 5.307 2.026l3.771-3.771a13.274 13.274 0 0 0-9.079-3.588C8.636 2.667 2.666 8.637 2.666 16s5.97 13.333 13.333 13.333S29.332 23.363 29.332 16c0-.894-.092-1.767-.259-2.611z"/><path fill="#ff3d00" style="fill:var(--color2,#ff3d00)" d="m4.204 9.794 4.381 3.213A7.996 7.996 0 0 1 16 8c2.039 0 3.895.769 5.307 2.026l3.771-3.771a13.274 13.274 0 0 0-9.079-3.588c-5.121 0-9.563 2.891-11.796 7.127z"/><path fill="#4caf50" style="fill:var(--color3,#4caf50)" d="M16 29.333c3.444 0 6.573-1.318 8.939-3.461l-4.127-3.492A7.944 7.944 0 0 1 15.999 24c-3.468 0-6.413-2.211-7.522-5.297l-4.348 3.35c2.207 4.318 6.688 7.281 11.87 7.281z"/><path fill="#1976d2" style="fill:var(--color4,#1976d2)" d="M29.074 13.389H28v-.055H16v5.333h7.535a8.022 8.022 0 0 1-2.725 3.714l.002-.001 4.127 3.492c-.292.265 4.394-3.205 4.394-9.871 0-.894-.092-1.767-.259-2.611z"/></symbol><symbol id="icon-tiktok" viewBox="0 0 28 32"><path d="M22.214 5.013A7.586 7.586 0 0 1 20.321 0h-5.518v22.044c-.043 1.193-.548 2.323-1.411 3.152s-2.015 1.292-3.214 1.292c-2.536 0-4.643-2.062-4.643-4.622 0-3.058 2.964-5.351 6.018-4.409v-5.618C5.392 11.021-.001 15.786-.001 21.866c0 5.92 4.929 10.133 10.161 10.133 5.607 0 10.161-4.533 10.161-10.133V10.684A13.162 13.162 0 0 0 28 13.137V7.644s-3.357.16-5.786-2.631z"/></symbol><symbol id="icon-instagram" viewBox="0 0 32 32"><path d="M9.28 0h13.44C27.84 0 32 4.16 32 9.28v13.44A9.281 9.281 0 0 1 22.72 32H9.28C4.16 32 0 27.84 0 22.72V9.28A9.281 9.281 0 0 1 9.28 0zm-.32 3.2A5.76 5.76 0 0 0 3.2 8.96v14.08a5.756 5.756 0 0 0 5.76 5.76h14.08a5.76 5.76 0 0 0 5.76-5.76V8.96a5.756 5.756 0 0 0-5.76-5.76H8.96zM24.4 5.6a2 2 0 1 1-.001 4.001A2 2 0 0 1 24.4 5.6zM16 8a8 8 0 1 1 0 16 8 8 0 0 1 0-16zm0 3.2a4.8 4.8 0 1 0 0 9.6 4.8 4.8 0 0 0 0-9.6z"/></symbol><symbol id="icon-twitter" viewBox="0 0 43 32"><path d="M42.667 3.765a18.598 18.598 0 0 1-5.017 1.299c1.795-.998 3.182-2.579 3.834-4.48-1.693.941-3.569 1.6-5.547 1.976C34.326.941 32.062 0 29.492 0c-4.793 0-8.709 3.614-8.709 8.075 0 .64.082 1.261.224 1.845-7.261-.339-13.726-3.558-18.029-8.433a7.522 7.522 0 0 0-1.183 4.047c0 2.805 1.53 5.289 3.895 6.701-1.448 0-2.794-.376-3.977-.941v.056c0 3.915 3.018 7.191 7.016 7.925a9.314 9.314 0 0 1-3.936.132c.554 1.605 1.639 3.009 3.102 4.015s3.231 1.564 5.056 1.594c-3.093 2.26-6.926 3.481-10.871 3.464-.693 0-1.387-.038-2.08-.113C3.875 30.664 8.484 32 13.42 32c16.071 0 24.902-12.311 24.902-22.984 0-.358 0-.696-.02-1.054a16.788 16.788 0 0 0 4.365-4.198z"/></symbol><symbol id="icon-star" viewBox="0 0 32 32"><path d="M16 23.027 24.24 28l-2.187-9.373 7.28-6.307-9.587-.813-3.747-8.84-3.747 8.84-9.587.813 7.28 6.307L7.758 28l8.24-4.973z"/></symbol><symbol id="icon-time" viewBox="0 0 32 32"><path d="M16 2.667C8.648 2.667 2.667 8.648 2.667 16S8.648 29.333 16 29.333 29.333 23.352 29.333 16 23.351 2.667 16 2.667zm0 24c-5.881 0-10.667-4.785-10.667-10.667S10.118 5.333 16 5.333c5.881 0 10.667 4.785 10.667 10.667S21.882 26.667 16 26.667z"/><path d="M17.333 9.333h-2.667v8h8v-2.667h-5.333V9.333z"/></symbol><symbol id="icon-calendar" viewBox="0 0 31 32"><path stroke-linejoin="round" stroke-linecap="round" stroke-width=".953" d="M19.394 6.566v-2.45m0 2.45v2.45m0-2.45h-5.818m-9.697 7.35V24.94c0 .65.272 1.273.757 1.732s1.143.717 1.828.717h18.101c.686 0 1.344-.258 1.829-.717s.757-1.083.757-1.732V13.916m-23.272 0h23.273m-23.273 0v-4.9c0-.65.272-1.273.757-1.732s1.143-.718 1.828-.718H9.05m18.101 7.35v-4.9c0-.65-.272-1.273-.757-1.732s-1.143-.718-1.829-.718h-.646M9.05 4.117v4.9"/></symbol><symbol id="icon-user" viewBox="0 0 32 32"><path stroke-linejoin="round" stroke-linecap="round" stroke-width="1.389" d="M22.593 25.968a5.326 5.326 0 0 0-5.285-4.666h-2.663a5.326 5.326 0 0 0-5.285 4.666m13.233 0a11.972 11.972 0 0 0 5.366-9.992c0-6.618-5.365-11.983-11.982-11.983S3.994 9.358 3.994 15.976c0 4.172 2.132 7.846 5.366 9.992m13.233 0c-1.896 1.258-4.171 1.991-6.617 1.991s-4.721-.733-6.617-1.991m10.612-12.654a3.994 3.994 0 1 1-7.988 0 3.994 3.994 0 0 1 7.988 0z"/></symbol><symbol id="icon-facebook" viewBox="0 0 32 32"><path d="M16 0C7.2 0 0 7.213 0 16.096 0 24.128 5.856 30.795 13.504 32V20.755H9.44v-4.659h4.064v-3.55c0-4.032 2.384-6.249 6.048-6.249 1.744 0 3.568.305 3.568.305v3.968h-2.016c-1.984 0-2.608 1.237-2.608 2.506v3.02h4.448l-.72 4.659h-3.728V32c3.77-.598 7.203-2.529 9.68-5.446S32.009 19.928 32 16.096C32 7.212 24.8 0 16 0z"/></symbol><symbol id="icon-log-in" viewBox="0 0 32 32"><path stroke-width="2.667" d="M6.572 25.428a13.327 13.327 0 0 0 14.531 2.89 13.332 13.332 0 0 0 5.984-19.727 13.327 13.327 0 0 0-13.688-5.67A13.327 13.327 0 0 0 6.572 6.57"/><path d="m20 16 1.04-.833.667.833-.667.833L20 16zM4 17.333a1.334 1.334 0 0 1 0-2.668v2.667zM15.707 8.5l5.333 6.667-2.08 1.667-5.333-6.667 2.08-1.667zm5.333 8.333L15.707 23.5l-2.08-1.667 5.333-6.667 2.08 1.667zm-1.04.5H4v-2.667h16v2.667z"/></symbol><symbol id="icon-menu" viewBox="0 0 32 32"><path d="M28 24H4v-2.667h24V24zm0-6.667H4v-2.667h24v2.667zm0-6.666H4V8h24v2.667z"/></symbol></defs></svg>