<svg aria-hidden="true" style="position: absolute; width: 0; height: 0; overflow: hidden;" version="1.1" xmlns="http://www.w3.org/2000/svg" xmlns:xlink="http://www.w3.org/1999/xlink">
<defs>
<symbol id="icon-location" viewBox="0 0 32 32">
<path d="M14.848 28.7c-2.537-3.177-8.181-10.875-8.181-15.2 0-5.247 4.179-9.5 9.333-9.5 5.153 0 9.333 4.253 9.333 9.5 0 4.325-5.687 12.023-8.181 15.2-0.598 0.757-1.706 0.757-2.304 0zM16 16.667c1.716 0 3.111-1.42 3.111-3.167s-1.395-3.167-3.111-3.167-3.111 1.42-3.111 3.167c0 1.747 1.395 3.167 3.111 3.167z"></path>
</symbol>
<symbol id="icon-email" viewBox="0 0 32 32">
<path d="M6.192 6.4h21.2c2 0 3.008 0.944 3.008 2.864v13.472c0 1.904-1.008 2.864-3.008 2.864h-21.2c-2 0-3.008-0.96-3.008-2.864v-13.472c0-1.92 1.008-2.864 3.008-2.864zM16.784 20.16l10.784-8.848c0.384-0.32 0.688-1.056 0.208-1.712-0.464-0.656-1.312-0.672-1.872-0.272l-9.12 6.176-9.104-6.176c-0.56-0.4-1.408-0.384-1.872 0.272-0.48 0.656-0.176 1.392 0.208 1.712l10.768 8.848z"></path>
</symbol>
<symbol id="icon-phone" viewBox="0 0 32 32">
<path d="M7.244 5.395l2.496-2.494c0.176-0.177 0.385-0.317 0.616-0.413s0.478-0.145 0.727-0.145c0.509 0 0.987 0.199 1.345 0.558l2.686 2.686c0.177 0.176 0.317 0.385 0.413 0.616s0.145 0.478 0.145 0.727c0 0.509-0.199 0.987-0.558 1.345l-1.964 1.964c0.46 1.013 1.099 1.935 1.887 2.721 0.786 0.79 1.708 1.431 2.721 1.894l1.964-1.964c0.176-0.177 0.385-0.317 0.616-0.413s0.478-0.145 0.727-0.145c0.509 0 0.987 0.199 1.345 0.558l2.688 2.684c0.177 0.176 0.317 0.386 0.413 0.617s0.145 0.478 0.145 0.728c0 0.509-0.199 0.987-0.558 1.345l-2.491 2.491c-0.572 0.574-1.362 0.9-2.173 0.9-0.171 0-0.335-0.014-0.497-0.042-3.159-0.52-6.293-2.201-8.822-4.727-2.527-2.524-4.205-5.655-4.732-8.824-0.159-0.968 0.162-1.964 0.86-2.667z"></path>
</symbol>
<symbol id="icon-google" viewBox="0 0 32 32">
<path fill="#ffc107" style="fill: var(--color1, #ffc107)" d="M29.074 13.389h-1.074v-0.055h-12v5.333h7.535c-1.099 3.105-4.053 5.333-7.535 5.333-4.418 0-8-3.582-8-8s3.582-8 8-8c2.039 0 3.895 0.769 5.307 2.026l3.771-3.771c-2.381-2.219-5.567-3.588-9.079-3.588-7.363 0-13.333 5.97-13.333 13.333s5.97 13.333 13.333 13.333c7.363 0 13.333-5.97 13.333-13.333 0-0.894-0.092-1.767-0.259-2.611z"></path>
<path fill="#ff3d00" style="fill: var(--color2, #ff3d00)" d="M4.204 9.794l4.381 3.213c1.185-2.935 4.056-5.007 7.415-5.007 2.039 0 3.895 0.769 5.307 2.026l3.771-3.771c-2.381-2.219-5.567-3.588-9.079-3.588-5.121 0-9.563 2.891-11.796 7.127z"></path>
<path fill="#4caf50" style="fill: var(--color3, #4caf50)" d="M16 29.333c3.444 0 6.573-1.318 8.939-3.461l-4.127-3.492c-1.384 1.052-3.074 1.621-4.813 1.62-3.468 0-6.413-2.211-7.522-5.297l-4.348 3.35c2.207 4.318 6.688 7.281 11.87 7.281z"></path>
<path fill="#1976d2" style="fill: var(--color4, #1976d2)" d="M29.074 13.389h-1.074v-0.055h-12v5.333h7.535c-0.526 1.478-1.473 2.769-2.725 3.714l0.002-0.001 4.127 3.492c-0.292 0.265 4.394-3.205 4.394-9.871 0-0.894-0.092-1.767-0.259-2.611z"></path>
</symbol>
<symbol id="icon-tiktok" viewBox="0 0 28 32">
<path d="M22.214 5.013c-1.221-1.387-1.893-3.169-1.893-5.013h-5.518v22.044c-0.043 1.193-0.548 2.323-1.411 3.152s-2.015 1.292-3.214 1.292c-2.536 0-4.643-2.062-4.643-4.622 0-3.058 2.964-5.351 6.018-4.409v-5.618c-6.161-0.818-11.554 3.947-11.554 10.027 0 5.92 4.929 10.133 10.161 10.133 5.607 0 10.161-4.533 10.161-10.133v-11.182c2.238 1.6 4.924 2.458 7.679 2.453v-5.493c0 0-3.357 0.16-5.786-2.631z"></path>
</symbol>
<symbol id="icon-instagram" viewBox="0 0 32 32">
<path d="M9.28 0h13.44c5.12 0 9.28 4.16 9.28 9.28v13.44c0 2.461-0.978 4.822-2.718 6.562s-4.101 2.718-6.562 2.718h-13.44c-5.12 0-9.28-4.16-9.28-9.28v-13.44c0-2.461 0.978-4.822 2.718-6.562s4.101-2.718 6.562-2.718zM8.96 3.2c-1.528 0-2.993 0.607-4.073 1.687s-1.687 2.545-1.687 4.073v14.080c0 3.184 2.576 5.76 5.76 5.76h14.080c1.528 0 2.993-0.607 4.073-1.687s1.687-2.545 1.687-4.073v-14.080c0-3.184-2.576-5.76-5.76-5.76h-14.080zM24.4 5.6c0.53 0 1.039 0.211 1.414 0.586s0.586 0.884 0.586 1.414c0 0.53-0.211 1.039-0.586 1.414s-0.884 0.586-1.414 0.586c-0.53 0-1.039-0.211-1.414-0.586s-0.586-0.884-0.586-1.414c0-0.53 0.211-1.039 0.586-1.414s0.884-0.586 1.414-0.586zM16 8c2.122 0 4.157 0.843 5.657 2.343s2.343 3.535 2.343 5.657-0.843 4.157-2.343 5.657c-1.5 1.5-3.535 2.343-5.657 2.343s-4.157-0.843-5.657-2.343c-1.5-1.5-2.343-3.535-2.343-5.657s0.843-4.157 2.343-5.657c1.5-1.5 3.535-2.343 5.657-2.343zM16 11.2c-1.273 0-2.494 0.506-3.394 1.406s-1.406 2.121-1.406 3.394c0 1.273 0.506 2.494 1.406 3.394s2.121 1.406 3.394 1.406 2.494-0.506 3.394-1.406c0.9-0.9 1.406-2.121 1.406-3.394s-0.506-2.494-1.406-3.394c-0.9-0.9-2.121-1.406-3.394-1.406z"></path>
</symbol>
<symbol id="icon-twitter" viewBox="0 0 43 32">
<path d="M42.667 3.765c-1.57 0.659-3.263 1.092-5.017 1.299 1.795-0.998 3.182-2.579 3.834-4.48-1.693 0.941-3.569 1.6-5.547 1.976-1.611-1.619-3.875-2.56-6.445-2.56-4.793 0-8.709 3.614-8.709 8.075 0 0.64 0.082 1.261 0.224 1.845-7.261-0.339-13.726-3.558-18.029-8.433-0.755 1.186-1.183 2.579-1.183 4.047 0 2.805 1.53 5.289 3.895 6.701-1.448 0-2.794-0.376-3.977-0.941v0.056c0 3.915 3.018 7.191 7.016 7.925-1.283 0.324-2.631 0.369-3.936 0.132 0.554 1.605 1.639 3.009 3.102 4.015s3.231 1.564 5.056 1.594c-3.093 2.26-6.926 3.481-10.871 3.464-0.693 0-1.387-0.038-2.080-0.113 3.875 2.297 8.484 3.633 13.42 3.633 16.071 0 24.902-12.311 24.902-22.984 0-0.358 0-0.696-0.020-1.054 1.713-1.129 3.182-2.56 4.365-4.198z"></path>
</symbol>
<symbol id="icon-star" viewBox="0 0 32 32">
<path d="M16 23.027l8.24 4.973-2.187-9.373 7.28-6.307-9.587-0.813-3.747-8.84-3.747 8.84-9.587 0.813 7.28 6.307-2.187 9.373 8.24-4.973z"></path>
</symbol>
<symbol id="icon-time" viewBox="0 0 32 32">
<path d="M16 2.667c-7.352 0-13.333 5.981-13.333 13.333s5.981 13.333 13.333 13.333c7.352 0 13.333-5.981 13.333-13.333s-5.982-13.333-13.333-13.333zM16 26.667c-5.881 0-10.667-4.785-10.667-10.667s4.785-10.667 10.667-10.667c5.881 0 10.667 4.785 10.667 10.667s-4.785 10.667-10.667 10.667z"></path>
<path d="M17.333 9.333h-2.667v8h8v-2.667h-5.333v-5.333z"></path>
</symbol>
<symbol id="icon-calendar" viewBox="0 0 31 32">
<path stroke-linejoin="round" stroke-linecap="round" stroke-miterlimit="4" stroke-width="0.9527" d="M19.394 6.566v-2.45M19.394 6.566v2.45M19.394 6.566h-5.818M3.879 13.916v11.024c0 0.65 0.272 1.273 0.757 1.732s1.143 0.717 1.828 0.717h18.101c0.686 0 1.344-0.258 1.829-0.717s0.757-1.083 0.757-1.732v-11.024M3.879 13.916h23.273M3.879 13.916v-4.9c0-0.65 0.272-1.273 0.757-1.732s1.143-0.718 1.828-0.718h2.586M27.151 13.916v-4.9c0-0.65-0.272-1.273-0.757-1.732s-1.143-0.718-1.829-0.718h-0.646M9.050 4.117v4.9"></path>
</symbol>
<symbol id="icon-user" viewBox="0 0 32 32">
<path stroke-linejoin="round" stroke-linecap="round" stroke-miterlimit="4" stroke-width="1.3893" d="M22.593 25.968c-0.325-2.63-2.567-4.666-5.285-4.666h-2.663c-2.718 0-4.96 2.036-5.285 4.666M22.593 25.968c3.234-2.146 5.366-5.82 5.366-9.992 0-6.618-5.365-11.983-11.982-11.983s-11.983 5.365-11.983 11.983c0 4.172 2.132 7.846 5.366 9.992M22.593 25.968c-1.896 1.258-4.171 1.991-6.617 1.991s-4.721-0.733-6.617-1.991M19.971 13.314c0 2.206-1.788 3.994-3.994 3.994s-3.994-1.788-3.994-3.994c0-2.206 1.788-3.994 3.994-3.994s3.994 1.788 3.994 3.994z"></path>
</symbol>
<symbol id="icon-facebook" viewBox="0 0 32 32">
<path d="M16 0c-8.8 0-16 7.213-16 16.096 0 8.032 5.856 14.699 13.504 15.904v-11.245h-4.064v-4.659h4.064v-3.55c0-4.032 2.384-6.249 6.048-6.249 1.744 0 3.568 0.305 3.568 0.305v3.968h-2.016c-1.984 0-2.608 1.237-2.608 2.506v3.020h4.448l-0.72 4.659h-3.728v11.245c3.77-0.598 7.203-2.529 9.68-5.446s3.833-6.626 3.824-10.458c0-8.884-7.2-16.096-16-16.096z"></path>
</symbol>
<symbol id="icon-log-in" viewBox="0 0 32 32">
<path stroke-linejoin="miter" stroke-linecap="butt" stroke-miterlimit="4" stroke-width="2.6667" d="M6.572 25.428c1.865 1.865 4.24 3.135 6.827 3.649s5.267 0.251 7.704-0.759c2.436-1.009 4.519-2.718 5.984-4.911s2.247-4.771 2.247-7.408c0-2.637-0.782-5.215-2.247-7.408s-3.547-3.902-5.984-4.911c-2.436-1.009-5.117-1.273-7.704-0.759s-4.962 1.784-6.827 3.649"></path>
<path d="M20 16l1.040-0.833 0.667 0.833-0.667 0.833-1.040-0.833zM4 17.333c-0.354 0-0.693-0.141-0.943-0.391s-0.391-0.589-0.391-0.943c0-0.354 0.14-0.693 0.391-0.943s0.589-0.391 0.943-0.391v2.667zM15.707 8.5l5.333 6.667-2.080 1.667-5.333-6.667 2.080-1.667zM21.040 16.833l-5.333 6.667-2.080-1.667 5.333-6.667 2.080 1.667zM20 17.333h-16v-2.667h16v2.667z"></path>
</symbol>
<symbol id="icon-menu" viewBox="0 0 32 32">
<path d="M28 24h-24v-2.667h24v2.667zM28 17.333h-24v-2.667h24v2.667zM28 10.667h-24v-2.667h24v2.667z"></path>
</symbol>
</defs>
</svg>
